<svg xmlns="http://www.w3.org/2000/svg" width="24" height="22" fill="none"><path fill="#25314C" d="M23.375 20.334a.875.875 0 0 1-.875.875H3.25c-1.644 0-2.625-.981-2.625-2.625V1.667a.875.875 0 0 1 1.75 0v16.917c0 .687.188.875.875.875H22.5c.483 0 .875.392.875.875M12.292 11v4.666a.875.875 0 0 0 1.75 0v-4.666a.875.875 0 0 0-1.75 0M19 7.792a.875.875 0 0 0-.875.875v7a.875.875 0 0 0 1.75 0v-7A.875.875 0 0 0 19 7.792m-11.667 8.75a.875.875 0 0 0 .875-.875v-2.333a.875.875 0 0 0-1.75 0v2.333c0 .483.392.875.875.875m0-9.158a.87.87 0 0 0 .619-.257l1.954-1.954c.22-.22.614-.22.834 0l1.342 1.342a2.34 2.34 0 0 0 3.307 0l2.736-2.736v1.388a.875.875 0 0 0 1.75 0v-3.5A.882.882 0 0 0 19 .791h-3.5a.875.875 0 0 0 0 1.75h1.387l-2.736 2.736a.597.597 0 0 1-.833 0l-1.341-1.342a2.34 2.34 0 0 0-3.309 0L6.714 5.89a.875.875 0 0 0 .62 1.495"></path></svg>