<svg width="15" height="15" viewBox="0 0 15 15" fill="none" xmlns="http://www.w3.org/2000/svg">
<path d="M6.69197 12.3168C6.81384 12.195 6.87507 12.0349 6.87507 11.8749C6.87507 11.7149 6.81384 11.5549 6.69197 11.433L3.38386 8.12493L13.1251 8.12493C13.4701 8.12493 13.7501 7.84556 13.7501 7.49993C13.7501 7.15431 13.4701 6.87493 13.1251 6.87493L3.38386 6.87493L6.69197 3.56683C6.93634 3.32245 6.93634 2.92741 6.69197 2.68304C6.44759 2.43866 6.05255 2.43866 5.80818 2.68304L1.43379 7.05743C1.37566 7.11555 1.33001 7.18426 1.29814 7.26113C1.23501 7.41363 1.23501 7.58623 1.29814 7.73873C1.33001 7.81561 1.37566 7.88431 1.43379 7.94244L5.80818 12.3168C6.05255 12.5612 6.44759 12.5612 6.69197 12.3168Z" fill="black"/>
</svg>
