<svg width="28" height="29" viewBox="0 0 28 29" fill="none" xmlns="http://www.w3.org/2000/svg">
<path d="M21 4.875H19.5417V4C19.5417 3.517 19.1497 3.125 18.6667 3.125C18.1837 3.125 17.7917 3.517 17.7917 4V4.875L10.2083 4.875V4C10.2083 3.517 9.81633 3.125 9.33333 3.125C8.85033 3.125 8.45833 3.517 8.45833 4V4.875H7C4.179 4.875 2.625 6.429 2.625 9.25L2.625 21.5C2.625 24.321 4.179 25.875 7 25.875L21 25.875C23.821 25.875 25.375 24.321 25.375 21.5L25.375 9.25C25.375 6.429 23.821 4.875 21 4.875ZM7 6.625H8.45833V7.5C8.45833 7.983 8.85033 8.375 9.33333 8.375C9.81633 8.375 10.2083 7.983 10.2083 7.5V6.625H17.7917V7.5C17.7917 7.983 18.1837 8.375 18.6667 8.375C19.1497 8.375 19.5417 7.983 19.5417 7.5V6.625L21 6.625C22.8398 6.625 23.625 7.41017 23.625 9.25V10.125L4.375 10.125V9.25C4.375 7.41017 5.16017 6.625 7 6.625ZM21 24.125L7 24.125C5.16017 24.125 4.375 23.3398 4.375 21.5L4.375 11.875L23.625 11.875L23.625 21.5C23.625 23.3398 22.8398 24.125 21 24.125ZM10.5234 15.6667C10.5234 16.3107 10.0019 16.8333 9.35669 16.8333C8.71269 16.8333 8.18404 16.3107 8.18404 15.6667C8.18404 15.0227 8.70101 14.5 9.34501 14.5H9.35669C10.0007 14.5 10.5234 15.0227 10.5234 15.6667ZM15.19 15.6667C15.19 16.3107 14.6685 16.8333 14.0234 16.8333C13.3794 16.8333 12.8507 16.3107 12.8507 15.6667C12.8507 15.0227 13.3677 14.5 14.0117 14.5H14.0234C14.6674 14.5 15.19 15.0227 15.19 15.6667ZM19.8567 15.6667C19.8567 16.3107 19.3352 16.8333 18.69 16.8333C18.046 16.8333 17.5174 16.3107 17.5174 15.6667C17.5174 15.0227 18.0343 14.5 18.6783 14.5H18.69C19.334 14.5 19.8567 15.0227 19.8567 15.6667ZM10.5234 20.3333C10.5234 20.9773 10.0019 21.5 9.35669 21.5C8.71269 21.5 8.18404 20.9773 8.18404 20.3333C8.18404 19.6893 8.70101 19.1667 9.34501 19.1667H9.35669C10.0007 19.1667 10.5234 19.6893 10.5234 20.3333ZM15.19 20.3333C15.19 20.9773 14.6685 21.5 14.0234 21.5C13.3794 21.5 12.8507 20.9773 12.8507 20.3333C12.8507 19.6893 13.3677 19.1667 14.0117 19.1667H14.0234C14.6674 19.1667 15.19 19.6893 15.19 20.3333ZM19.8567 20.3333C19.8567 20.9773 19.3352 21.5 18.69 21.5C18.046 21.5 17.5174 20.9773 17.5174 20.3333C17.5174 19.6893 18.0343 19.1667 18.6783 19.1667H18.69C19.334 19.1667 19.8567 19.6893 19.8567 20.3333Z" fill="#25314C"/>
</svg>
