<svg width="28" height="28" viewBox="0 0 28 28" fill="none" xmlns="http://www.w3.org/2000/svg">
<path d="M21 4.95825L7 4.95825C4.179 4.95825 2.625 6.51225 2.625 9.33325L2.625 18.6666C2.625 21.4876 4.179 23.0416 7 23.0416L21 23.0416C23.821 23.0416 25.375 21.4876 25.375 18.6666L25.375 9.33325C25.375 6.51225 23.821 4.95825 21 4.95825ZM23.625 18.6666C23.625 20.5064 22.8398 21.2916 21 21.2916L7 21.2916C5.16017 21.2916 4.375 20.5064 4.375 18.6666L4.375 12.5416L23.625 12.5416L23.625 18.6666ZM23.625 10.7916L4.375 10.7916V9.33325C4.375 7.49342 5.16017 6.70825 7 6.70825L21 6.70825C22.8398 6.70825 23.625 7.49342 23.625 9.33325V10.7916ZM7.29167 17.4999C7.29167 17.0169 7.68367 16.6249 8.16667 16.6249H11.6667C12.1497 16.6249 12.5417 17.0169 12.5417 17.4999C12.5417 17.9829 12.1497 18.3749 11.6667 18.3749H8.16667C7.68367 18.3749 7.29167 17.9829 7.29167 17.4999Z" fill="#25314C"/>
</svg>
