<svg width="45" height="46" viewBox="0 0 45 46" fill="none" xmlns="http://www.w3.org/2000/svg">
<g clip-path="url(#clip0_48_384)">
<path d="M40.2933 -2.41699H4.70996C0.49879 -2.41699 -2.91504 0.996837 -2.91504 5.20801V40.7913C-2.91504 45.0025 0.49879 48.4163 4.70996 48.4163H40.2933C44.5045 48.4163 47.9183 45.0025 47.9183 40.7913V5.20801C47.9183 0.996837 44.5045 -2.41699 40.2933 -2.41699Z" fill="white"/>
<path d="M6.96716 31.4724H14.3686V14.8692H30.9718V7.46777H10.6679C8.20073 7.46777 6.96716 8.63467 6.96716 10.9684" fill="#4285F4"/>
<path d="M30.5035 7.46777V14.9986H38.0344V10.9359C38.0344 8.62383 36.8471 7.46777 34.4725 7.46777" fill="#1967D2"/>
<path d="M30.5035 14.998H38.0344V31.0011H30.5035" fill="#FBBC04"/>
<path d="M6.96716 31.002V34.9709C6.96716 37.3455 8.12322 38.5328 10.4353 38.5328H14.498V31.002" fill="#188038"/>
<path d="M14.4965 31.002H30.4995V38.5328H14.4965" fill="#34A853"/>
<path d="M30.5035 38.5328V31.002H38.0344" fill="#EA4335"/>
<path fill-rule="evenodd" clip-rule="evenodd" d="M26.4099 17.8723L26.5628 17.8223H26.9503V17.8723H27.6768V28.1772H26.2238V19.7366L24.3655 21.0872L23.5294 19.8599L26.1448 17.959L26.2238 17.9331V17.8723H26.4099ZM20.4832 19.4112C20.1696 19.3131 19.8301 19.2965 19.5062 19.3642C19.1823 19.4319 18.8968 19.579 18.6782 19.7779C18.4603 19.976 18.3196 20.2153 18.2573 20.4625L16.8512 20.0844C16.9911 19.5294 17.2964 19.035 17.7178 18.6517C18.1383 18.2691 18.6594 18.0101 19.218 17.8933C19.7765 17.7766 20.3598 17.8046 20.9044 17.9749C21.449 18.1453 21.9424 18.4545 22.3224 18.8784C22.7032 19.3032 22.9554 19.8275 23.0356 20.3951C23.1158 20.9635 23.0181 21.5374 22.7599 22.048C22.577 22.4098 22.3208 22.726 22.0122 22.9832C22.3183 23.2414 22.5725 23.5574 22.7544 23.9179C23.0115 24.4276 23.1102 24.9999 23.0314 25.5669C22.9526 26.1332 22.7023 26.6562 22.3228 27.0796C21.9441 27.502 21.4521 27.809 20.9088 27.9773C20.3656 28.1456 19.7839 28.1715 19.2267 28.0539C18.6694 27.9363 18.1491 27.6777 17.7279 27.297C17.306 26.9157 16.9978 26.4244 16.853 25.8722L18.2555 25.4799C18.3205 25.7278 18.464 25.9682 18.6847 26.1676C18.906 26.3676 19.1934 26.5152 19.5176 26.5836C19.8418 26.652 20.1801 26.6363 20.4914 26.5398C20.8026 26.4434 21.0655 26.2732 21.2566 26.06C21.4469 25.8478 21.5586 25.6021 21.5931 25.3536C21.6275 25.1059 21.5862 24.8499 21.4658 24.6114C21.3447 24.3714 21.1451 24.1529 20.8774 23.9911C20.6118 23.8306 20.2957 23.7362 19.965 23.7251H19.1041V22.2244H19.9688C20.3015 22.217 20.619 22.1254 20.8852 21.9669C21.1525 21.8077 21.3515 21.5915 21.472 21.3533C21.5917 21.1165 21.633 20.8609 21.5978 20.6117C21.5625 20.3617 21.4492 20.1132 21.2562 19.898C21.0625 19.6818 20.7967 19.5093 20.4832 19.4112Z" fill="#4285F4"/>
</g>
<defs>
<clipPath id="clip0_48_384">
<rect width="45" height="45" fill="white" transform="translate(0 0.5)"/>
</clipPath>
</defs>
</svg>
