<svg width="28" height="28" viewBox="0 0 28 28" fill="none" xmlns="http://www.w3.org/2000/svg">
<path d="M10.507 14.0584C8.96348 14.0584 7.70816 12.8019 7.70816 11.2584C7.70816 9.71486 8.96348 8.45833 10.507 8.45833C12.0505 8.45833 13.307 9.71486 13.307 11.2584C13.307 12.8019 12.0505 14.0584 10.507 14.0584ZM10.507 10.2083C9.92831 10.2083 9.45816 10.6797 9.45816 11.2584C9.45816 11.837 9.92831 12.3084 10.507 12.3084C11.0856 12.3084 11.557 11.837 11.557 11.2584C11.557 10.6797 11.0856 10.2083 10.507 10.2083ZM14 19.5417C13.517 19.5417 13.125 19.1497 13.125 18.6667V18.3132C13.125 17.4732 12.5452 16.625 11.249 16.625H9.75218C8.45601 16.625 7.87614 17.4732 7.87614 18.3132V18.6667C7.87614 19.1497 7.48414 19.5417 7.00114 19.5417C6.51814 19.5417 6.12614 19.1497 6.12614 18.6667V18.3132C6.12614 16.6052 7.37101 14.875 9.75218 14.875H11.249C13.6302 14.875 14.875 16.604 14.875 18.3132V18.6667C14.875 19.1497 14.483 19.5417 14 19.5417ZM21 23.625L7 23.625C4.179 23.625 2.625 22.071 2.625 19.25L2.625 8.75C2.625 5.929 4.179 4.375 7 4.375L21 4.375C23.821 4.375 25.375 5.929 25.375 8.75L25.375 19.25C25.375 22.071 23.821 23.625 21 23.625ZM7 6.125C5.16017 6.125 4.375 6.91017 4.375 8.75L4.375 19.25C4.375 21.0898 5.16017 21.875 7 21.875L21 21.875C22.8398 21.875 23.625 21.0898 23.625 19.25L23.625 8.75C23.625 6.91017 22.8398 6.125 21 6.125L7 6.125ZM21.875 11.5943C21.875 11.1113 21.483 10.7193 21 10.7193L16.3333 10.7193C15.8503 10.7193 15.4583 11.1113 15.4583 11.5943C15.4583 12.0773 15.8503 12.4693 16.3333 12.4693L21 12.4693C21.483 12.4693 21.875 12.0773 21.875 11.5943ZM21.8167 16.3333C21.8167 15.8503 21.4247 15.4583 20.9417 15.4583L17.4417 15.4583C16.9587 15.4583 16.5667 15.8503 16.5667 16.3333C16.5667 16.8163 16.9587 17.2083 17.4417 17.2083L20.9417 17.2083C21.4247 17.2083 21.8167 16.8163 21.8167 16.3333Z" fill="#25314C"/>
</svg>
