<svg width="46" height="45" viewBox="0 0 46 45" fill="none" xmlns="http://www.w3.org/2000/svg">
<path d="M19.1667 26.2502C19.7913 26.8738 20.5368 27.3693 21.3596 27.7075C22.1824 28.0457 23.0659 28.2199 23.9584 28.2199C24.8509 28.2199 25.7344 28.0457 26.5571 27.7075C27.3799 27.3693 28.1254 26.8738 28.7501 26.2502L36.4167 18.7502C37.6875 17.507 38.4015 15.8209 38.4015 14.0627C38.4015 12.3046 37.6875 10.6184 36.4167 9.37522C35.1459 8.13202 33.4223 7.43359 31.6251 7.43359C29.8278 7.43359 28.1042 8.13202 26.8334 9.37522L25.8751 10.3127M26.8334 18.7504C26.2088 18.1268 25.4633 17.6313 24.6405 17.2931C23.8177 16.9549 22.9342 16.7807 22.0417 16.7807C21.1493 16.7807 20.2658 16.9549 19.443 17.2931C18.6202 17.6313 17.8747 18.1268 17.2501 18.7504L9.58341 26.2504C8.31258 27.4936 7.59863 29.1797 7.59863 30.9379C7.59863 32.696 8.31258 34.3822 9.58341 35.6254C10.8542 36.8686 12.5778 37.567 14.3751 37.567C16.1723 37.567 17.8959 36.8686 19.1667 35.6254L20.1251 34.6879" stroke="#7F7F99" stroke-width="3" stroke-linecap="round" stroke-linejoin="round"/>
</svg>
