<svg width="90" height="20" viewBox="0 0 90 20" fill="none" xmlns="http://www.w3.org/2000/svg">
<path d="M89.8641 5.68144L80.1728 15.9217C79.3296 16.8126 77.963 16.8126 77.1213 15.9217L75.8638 14.5948C75.8048 14.5309 75.8048 14.4281 75.8638 14.3643L86.9747 2.62571C87.1546 2.4357 87.4479 2.4357 87.6292 2.62727L89.8641 4.98992C90.0454 5.18149 90.0454 5.48988 89.8641 5.68144Z" fill="white"/>
<path d="M81.7336 5.35393L72.0393 15.5958C71.1961 16.4866 69.831 16.4866 68.9878 15.5958L64.1333 10.4671C63.952 10.277 63.952 9.9671 64.1333 9.77709L66.3726 7.41288C66.5524 7.22287 66.8458 7.22287 67.0256 7.41288L70.4045 10.9841C70.4649 11.0464 70.5622 11.0464 70.6227 10.9841L78.8427 2.29973C79.0226 2.10972 79.3159 2.10972 79.4958 2.29973L81.7336 4.66241C81.9134 4.85242 81.9134 5.16236 81.7336 5.35393Z" fill="#39B33E"/>
<path d="M47.977 4.81776V6.31915C54.2526 5.23204 57.4928 6.06685 57.4928 10.9043V13.429H45.0463V8.70829C45.0463 5.54353 43.0075 4.60439 40.3761 4.60439H37.4145V6.0061H40.3761C42.7819 6.0061 43.5559 6.92811 43.5559 8.70673V13.4274H36.5447V14.8634H58.967V10.9448C58.9685 5.44385 55.914 3.55622 47.977 4.81776Z" fill="white"/>
<path d="M20.346 13.4289H10.1638V4.58881H5.3078C0.964859 4.58881 -0.000732422 7.83768 -0.000732422 9.65367C-0.000732422 11.4697 0.964859 14.8649 5.3078 14.8649H21.801V0.648438H20.3445V13.4289H20.346ZM5.30928 13.4289C2.54224 13.4289 1.45722 11.5507 1.45722 9.65367C1.45722 7.75669 2.54224 6.02479 5.30928 6.02479H8.70876V13.4289H5.30928Z" fill="white"/>
<path d="M29.3586 4.58691C25.0156 4.58691 24.05 7.83578 24.05 9.65177C24.05 11.4678 25.0156 14.863 29.3586 14.863H32.7581C32.7581 17.4531 31.5448 18.4467 26.1655 17.5434L25.9208 18.9669C32.9276 20.2082 34.2146 18.3362 34.2146 14.8646V4.58847H29.3586V4.58691ZM32.7581 13.4286H29.3586C26.5915 13.4286 25.5066 11.5503 25.5066 9.65333C25.5066 7.75635 26.5915 6.02445 29.3586 6.02445H32.7581V13.4286Z" fill="white"/>
<path d="M6.63415 2.56979C7.1339 2.56979 7.54076 2.14149 7.54076 1.61351C7.54076 1.08553 7.13537 0.657227 6.63415 0.657227C6.1344 0.657227 5.72754 1.08553 5.72754 1.61351C5.72901 2.14149 6.1344 2.56979 6.63415 2.56979Z" fill="white"/>
<path d="M4.142 2.56979C4.64174 2.56979 5.0486 2.14149 5.0486 1.61351C5.0486 1.08553 4.64322 0.657227 4.142 0.657227C3.64225 0.657227 3.23535 1.08553 3.23535 1.61351C3.23683 2.14149 3.64225 2.56979 4.142 2.56979Z" fill="white"/>
<path d="M53.4718 17.1973C52.972 17.1973 52.5652 17.6256 52.5652 18.1551C52.5652 18.6831 52.9706 19.1114 53.4718 19.1114C53.9715 19.1114 54.3784 18.6831 54.3784 18.1551C54.377 17.6256 53.9715 17.1973 53.4718 17.1973Z" fill="white"/>
</svg>
