<svg width="116" height="25" viewBox="0 0 116 25" fill="none" xmlns="http://www.w3.org/2000/svg">
<path d="M115.824 6.93525L103.334 20.1338C102.247 21.282 100.485 21.282 99.4004 20.1338L97.7797 18.4235C97.7037 18.3412 97.7037 18.2087 97.7797 18.1264L112.1 2.99675C112.332 2.75185 112.71 2.75186 112.944 2.99876L115.824 6.04395C116.058 6.29086 116.058 6.68834 115.824 6.93525Z" fill="#141414"/>
<path d="M105.348 6.51311L92.8529 19.7137C91.7661 20.8619 90.0066 20.8619 88.9198 19.7137L82.663 13.1034C82.4292 12.8585 82.4292 12.459 82.663 12.2141L85.5491 9.16687C85.7809 8.92197 86.159 8.92197 86.3908 9.16687L90.7458 13.7698C90.8237 13.8501 90.9491 13.8501 91.027 13.7698L101.622 2.57661C101.854 2.33171 102.232 2.33171 102.463 2.57661L105.348 5.62182C105.579 5.86672 105.579 6.2662 105.348 6.51311Z" fill="#8EB44D"/>
<path d="M61.8382 5.82057V7.75569C69.9267 6.35454 74.1031 7.43051 74.1031 13.6655V16.9194H58.0609V10.835C58.0609 6.75601 55.4331 5.54556 52.0415 5.54556H48.2243V7.35221H52.0415C55.1424 7.35221 56.1399 8.54057 56.1399 10.833V16.9174H47.1033V18.7682H76.0031V13.7176C76.005 6.62753 72.0681 4.19459 61.8382 5.82057Z" fill="#141414"/>
<path d="M26.2231 16.9203H13.0994V5.52636H6.84063C1.24307 5.52636 -0.00146484 9.71377 -0.00146484 12.0544C-0.00146484 14.395 1.24307 18.7711 6.84063 18.7711H28.0984V0.447659H26.2212V16.9203H26.2231ZM6.84254 16.9203C3.27613 16.9203 1.87767 14.4994 1.87767 12.0544C1.87767 9.60938 3.27613 7.37716 6.84254 7.37716H11.2241V16.9203H6.84254Z" fill="#141414"/>
<path d="M37.8394 5.52304C32.2419 5.52304 30.9973 9.71045 30.9973 12.0511C30.9973 14.3917 32.2419 18.7678 37.8394 18.7678H42.221C42.221 22.1061 40.6572 23.3868 33.7239 22.2225L33.4085 24.0572C42.4395 25.6571 44.0982 23.2442 44.0982 18.7698V5.52505H37.8394V5.52304ZM42.221 16.919H37.8394C34.273 16.919 32.8746 14.4981 32.8746 12.0531C32.8746 9.60808 34.273 7.37585 37.8394 7.37585H42.221V16.919Z" fill="#141414"/>
<path d="M8.54791 2.92445C9.19203 2.92445 9.71642 2.37242 9.71642 1.69192C9.71642 1.01141 9.19393 0.459377 8.54791 0.459377C7.90379 0.459377 7.37939 1.01141 7.37939 1.69192C7.38129 2.37242 7.90379 2.92445 8.54791 2.92445Z" fill="#141414"/>
<path d="M5.3358 2.92445C5.97992 2.92445 6.50431 2.37242 6.50431 1.69192C6.50431 1.01141 5.98182 0.459377 5.3358 0.459377C4.69168 0.459377 4.16724 1.01141 4.16724 1.69192C4.16914 2.37242 4.69168 2.92445 5.3358 2.92445Z" fill="#141414"/>
<path d="M68.9191 21.777C68.275 21.777 67.7506 22.329 67.7506 23.0115C67.7506 23.692 68.2731 24.2441 68.9191 24.2441C69.5632 24.2441 70.0877 23.692 70.0877 23.0115C70.0858 22.329 69.5632 21.777 68.9191 21.777Z" fill="#141414"/>
</svg>
