<svg width="21" height="20" viewBox="0 0 21 20" fill="none" xmlns="http://www.w3.org/2000/svg">
<path d="M2.375 5C2.375 4.655 2.655 4.375 3 4.375H18C18.345 4.375 18.625 4.655 18.625 5C18.625 5.345 18.345 5.625 18 5.625H3C2.655 5.625 2.375 5.345 2.375 5ZM18 9.375H3C2.655 9.375 2.375 9.655 2.375 10C2.375 10.345 2.655 10.625 3 10.625H18C18.345 10.625 18.625 10.345 18.625 10C18.625 9.655 18.345 9.375 18 9.375ZM18 14.375H3C2.655 14.375 2.375 14.655 2.375 15C2.375 15.345 2.655 15.625 3 15.625H18C18.345 15.625 18.625 15.345 18.625 15C18.625 14.655 18.345 14.375 18 14.375Z" fill="#25314C"/>
</svg>
