<svg xmlns="http://www.w3.org/2000/svg" width="24" height="24" fill="none"><path fill="#25314C" d="M2.671 23.374c-.533 0-1.05-.21-1.443-.602a2.03 2.03 0 0 1-.498-2.09l.981-2.919c.114-.358.104-.717-.03-1a11.4 11.4 0 0 1-1.053-4.764C.628 5.728 5.73.625 12.001.625c6.272 0 11.374 5.102 11.374 11.374s-5.102 11.374-11.374 11.374c-1.632 0-3.277-.363-4.754-1.05-.29-.14-.65-.149-1.02-.03l-2.905.975a2.1 2.1 0 0 1-.65.106M12 2.375c-5.306 0-9.623 4.317-9.623 9.624 0 1.38.307 2.77.887 4.018.322.678.364 1.493.11 2.29l-.984 2.93a.28.28 0 0 0 .075.298.28.28 0 0 0 .3.075l2.914-.979c.809-.258 1.626-.218 2.312.11a9.6 9.6 0 0 0 4.009.883c5.307 0 9.624-4.317 9.624-9.624S17.307 2.375 12 2.375m5.54 7.292a.875.875 0 0 0-.874-.875H7.332a.875.875 0 0 0 0 1.75h9.334a.875.875 0 0 0 .875-.875m-3.5 4.666a.875.875 0 0 0-.874-.875H7.332a.875.875 0 0 0 0 1.75h5.834a.875.875 0 0 0 .875-.875"></path></svg>