<svg width="16" height="20" viewBox="0 0 16 20" fill="none" xmlns="http://www.w3.org/2000/svg">
<g clip-path="url(#clip0_1_373)">
<path d="M6.55254 8.11364V7.41456C6.31331 7.37614 6.07168 7.35509 5.8295 7.35158C3.48479 7.3465 1.40896 8.88777 0.704841 11.1564C0.00072369 13.4249 0.831853 15.8945 2.75642 17.2528C2.05068 16.4867 1.57863 15.5297 1.39726 14.4974C1.21589 13.4651 1.33294 12.4016 1.7343 11.4353C2.13566 10.469 2.80416 9.64119 3.65911 9.05179C4.51406 8.46239 5.51892 8.13659 6.55239 8.11372L6.55254 8.11364Z" fill="#25F4EE"/>
<path d="M6.68416 16.0305C7.9951 16.0287 9.07267 14.9811 9.13007 13.6526V1.79752H11.2652C11.2216 1.54979 11.2008 1.2985 11.2031 1.04688L8.28268 1.04688V12.8906C8.23411 14.2258 7.15396 15.2835 5.83676 15.2856C5.44313 15.2822 5.05593 15.184 4.70703 14.9991C4.93316 15.3169 5.23012 15.576 5.57371 15.7552C5.91731 15.9345 6.2978 16.0288 6.68416 16.0305ZM15.2532 5.81983V5.16089C14.4674 5.16121 13.6991 4.92601 13.0446 4.48482C13.6183 5.16137 14.3936 5.62999 15.2532 5.81983Z" fill="#25F4EE"/>
<path d="M13.0432 4.48216C12.3984 3.73747 12.043 2.78016 12.0433 1.78906H11.2638C11.3644 2.33703 11.5742 2.85843 11.8801 3.32146C12.186 3.78448 12.5818 4.17942 13.0432 4.48216ZM5.8297 10.3094C5.28294 10.3123 4.7528 10.5004 4.32357 10.844C3.89434 11.1875 3.59065 11.6668 3.46078 12.2055C3.33091 12.7443 3.38233 13.3116 3.60685 13.8173C3.83137 14.323 4.2161 14.7381 4.69989 14.9965C4.43538 14.626 4.27698 14.1886 4.24219 13.7325C4.2074 13.2765 4.29758 12.8196 4.50275 12.4122C4.70793 12.0049 5.02011 11.663 5.40482 11.4244C5.78953 11.1858 6.23179 11.0597 6.68273 11.06C6.92788 11.0633 7.17132 11.102 7.4057 11.175V8.16072C7.16634 8.12433 6.92475 8.10518 6.68273 8.10345H6.55275V10.3954C6.31712 10.3313 6.07355 10.3023 5.8297 10.3094Z" fill="#FE2C55"/>
<path d="M15.2491 5.81641V8.1084C13.7944 8.10553 12.3774 7.63844 11.1989 6.77331V12.7954C11.1927 15.8004 8.78939 18.2331 5.82698 18.2331C4.72676 18.2351 3.65303 17.8908 2.75391 17.2476C3.48708 18.0475 4.44075 18.6049 5.49069 18.8472C6.54062 19.0895 7.63816 19.0055 8.64035 18.6061C9.64253 18.2066 10.5029 17.5103 11.1094 16.6078C11.7159 15.7053 12.0404 14.6385 12.0406 13.5462V7.54117C13.2231 8.4006 14.6417 8.86159 16.0964 8.85904V5.90788C15.8116 5.90702 15.5277 5.87636 15.2491 5.81641Z" fill="#FE2C55"/>
<path d="M11.2001 12.7962V6.77407C12.3822 7.63428 13.8011 8.09535 15.2559 8.09194V5.80003C14.3965 5.61592 13.6193 5.15339 13.0416 4.48216C12.5803 4.17942 12.1845 3.78448 11.8786 3.32146C11.5726 2.85843 11.3629 2.33703 11.2622 1.78906H9.12712V13.6501C9.10633 14.1664 8.92751 14.6633 8.6155 15.0718C8.30349 15.4802 7.8738 15.7799 7.38613 15.9293C6.89846 16.0786 6.37704 16.0701 5.89434 15.9051C5.41164 15.74 4.99162 15.4264 4.69266 15.0081C4.20879 14.7497 3.82397 14.3346 3.5994 13.8289C3.37482 13.3231 3.32338 12.7558 3.45325 12.217C3.58313 11.6782 3.88686 11.1989 4.31615 10.8553C4.74545 10.5117 5.27566 10.3236 5.82247 10.3209C6.06771 10.3231 6.31131 10.3617 6.54552 10.4355V8.14351C5.50649 8.16138 4.49503 8.48552 3.63448 9.07641C2.77392 9.6673 2.10145 10.4994 1.69904 11.4713C1.29664 12.4431 1.1817 13.5128 1.36823 14.5497C1.55476 15.5867 2.03471 16.5462 2.74955 17.3113C3.65751 17.9333 4.73276 18.2555 5.82818 18.2339C8.79059 18.2339 11.1939 15.8011 11.2001 12.7962Z" fill="black"/>
</g>
<defs>
<clipPath id="clip0_1_373">
<rect width="16" height="20" fill="white"/>
</clipPath>
</defs>
</svg>
