<svg width="28" height="29" viewBox="0 0 28 29" fill="none" xmlns="http://www.w3.org/2000/svg">
<path d="M18.76 12.6206C18.8953 12.1575 19.3795 11.8914 19.8462 12.0268C19.9524 12.0583 20.0772 12.0735 20.23 12.0735C21.2462 12.0735 22.0734 11.2415 22.0734 10.2184C22.0734 9.38186 21.5087 8.65045 20.6978 8.44045C20.23 8.31912 19.9488 7.84074 20.0714 7.3729C20.1915 6.90507 20.6664 6.62745 21.1378 6.74528C22.7186 7.15595 23.8234 8.58389 23.8234 10.2172C23.8234 12.2052 22.211 13.8222 20.23 13.8222C19.9092 13.8222 19.6222 13.7837 19.3539 13.7055C18.8895 13.5702 18.6247 13.085 18.76 12.6206ZM22.0465 14.4196C22.0348 14.4196 22.0244 14.4196 22.015 14.4196C21.546 14.4196 21.1575 14.7906 21.1412 15.2631C21.1225 15.7461 21.5006 16.151 21.9836 16.1685C24.5887 16.263 24.7917 18.4959 24.7917 19.1784V21.5001C24.7917 21.9831 25.1837 22.3751 25.6667 22.3751C26.1497 22.3751 26.5417 21.9831 26.5417 21.5001V19.1784C26.5417 17.0574 25.3645 14.5386 22.0465 14.4196ZM7.78176 13.8235C8.10259 13.8235 8.38956 13.7849 8.6579 13.7067C9.12106 13.5702 9.3871 13.085 9.25177 12.6206C9.11644 12.1575 8.63107 11.8914 8.16557 12.0268C8.0594 12.0583 7.93459 12.0735 7.78176 12.0735C6.76559 12.0735 5.93833 11.2415 5.93833 10.2184C5.93833 9.37486 6.50765 8.63877 7.32432 8.42877C7.79099 8.30861 8.07456 7.83148 7.95323 7.36365C7.83189 6.89465 7.35349 6.61107 6.88682 6.73474C5.29899 7.14424 4.18947 8.57686 4.18947 10.2184C4.18831 12.2064 5.80076 13.8235 7.78176 13.8235ZM6.83555 15.2584C6.81572 14.7754 6.41899 14.394 5.92666 14.4196C2.62849 14.5526 1.45837 17.0668 1.45837 19.1784L1.45837 21.5001C1.45837 21.9831 1.85037 22.3751 2.33337 22.3751C2.81637 22.3751 3.20837 21.9831 3.20837 21.5001V19.1784C3.20837 18.3069 3.4802 16.2688 5.99786 16.1685C6.48086 16.1486 6.85538 15.7414 6.83555 15.2584ZM9.63444 8.66675C9.63444 6.25408 11.5979 4.29175 14.0094 4.29175C16.4209 4.29175 18.3844 6.25408 18.3844 8.66675C18.3844 11.0794 16.4209 13.0417 14.0094 13.0417C11.5979 13.0417 9.63444 11.0794 9.63444 8.66675ZM11.3844 8.66675C11.3844 10.1146 12.5628 11.2917 14.0094 11.2917C15.4561 11.2917 16.6344 10.1146 16.6344 8.66675C16.6344 7.21891 15.4561 6.04175 14.0094 6.04175C12.5628 6.04175 11.3844 7.21891 11.3844 8.66675ZM16.0732 14.6623H11.9258C7.45159 14.6623 5.86485 17.9371 5.86485 20.7417L5.86485 23.8334C5.86485 24.3164 6.25685 24.7084 6.73985 24.7084C7.22285 24.7084 7.61485 24.3164 7.61485 23.8334L7.61485 20.7417C7.61485 19.7256 7.92643 16.4123 11.9258 16.4123H16.0732C20.0737 16.4123 20.3841 19.7256 20.3841 20.7417V23.8334C20.3841 24.3164 20.7761 24.7084 21.2591 24.7084C21.7421 24.7084 22.1341 24.3164 22.1341 23.8334V20.7417C22.1353 17.9371 20.5473 14.6623 16.0732 14.6623Z" fill="#25314C"/>
</svg>
