<svg width="28" height="29" viewBox="0 0 28 29" fill="none" xmlns="http://www.w3.org/2000/svg">
<path d="M25.5499 7.74259C24.9363 7.44859 24.2271 7.52899 23.6974 7.95365L20.7084 10.3454V9.83325C20.7084 7.01225 19.1544 5.45825 16.3334 5.45825L5.83337 5.45825C3.01237 5.45825 1.45837 7.01225 1.45837 9.83325L1.45837 19.1666C1.45837 21.9876 3.01237 23.5416 5.83337 23.5416L16.3334 23.5416C19.1544 23.5416 20.7084 21.9876 20.7084 19.1666V18.6545L23.6985 21.0473C24.0159 21.3017 24.3998 21.4321 24.7883 21.4321C25.0461 21.4321 25.3049 21.3751 25.5499 21.2572C26.1601 20.9632 26.5417 20.3577 26.5417 19.6798L26.5417 9.32113C26.5417 8.64213 26.1613 8.03776 25.5499 7.74259ZM18.9584 19.1666C18.9584 21.0064 18.1732 21.7916 16.3334 21.7916L5.83337 21.7916C3.99354 21.7916 3.20837 21.0064 3.20837 19.1666L3.20837 9.83325C3.20837 7.99342 3.99354 7.20825 5.83337 7.20825L16.3334 7.20825C18.1732 7.20825 18.9584 7.99342 18.9584 9.83325L18.9584 19.1666ZM24.7917 19.6798L20.7084 16.4131V12.5878L24.7917 9.32113L24.7917 19.6798Z" fill="black"/>
</svg>
