<svg width="20" height="20" viewBox="0 0 20 20" fill="none" xmlns="http://www.w3.org/2000/svg">
<g clip-path="url(#clip0_1_363)">
<path d="M5.26165 17.3048L5.58823 17.467C6.91988 18.254 8.44228 18.6653 9.99166 18.6567C14.7614 18.6459 18.6804 14.7431 18.6804 10.0041C18.6804 7.71389 17.7649 5.51449 16.1369 3.8932C14.511 2.25516 12.2897 1.33203 9.97479 1.33203C5.22681 1.33203 1.32031 5.21382 1.32031 9.93058C1.32031 9.9679 1.32031 10.0047 1.32086 10.042C1.33516 11.6456 1.78661 13.2155 2.6272 14.5846L2.84491 14.9091L1.97403 18.0997L5.26165 17.3048Z" fill="#0BD371"/>
<path d="M17.1076 2.9204C15.2542 1.04169 12.7117 -0.0122928 10.0642 0.000108206H10.0473C4.59505 0.000125147 0.108328 4.45787 0.108328 9.87494C0.108328 9.90035 0.108873 9.92524 0.108873 9.95067C0.12941 11.673 0.57817 13.3635 1.41522 14.8718L0 20.0093L5.27434 18.6573C6.73138 19.4521 8.36945 19.8618 10.0316 19.8471C15.504 19.8173 19.9902 15.3342 19.9869 9.89657C20 7.28402 18.9631 4.77152 17.1076 2.9204ZM10.0642 18.1706C8.59087 18.1783 7.14346 17.7856 5.87851 17.035L5.55192 16.8727L2.41128 17.6839L3.22773 14.6014L3.01002 14.277C2.20128 12.9796 1.77282 11.4837 1.7728 9.95768C1.7728 5.45725 5.50023 1.7539 10.03 1.7539C14.5597 1.7539 18.2871 5.45725 18.2871 9.95768C18.2871 12.7914 16.8093 15.4316 14.386 16.9268C13.1044 17.7425 11.6135 18.1743 10.0915 18.1706M14.8759 12.1679L14.2772 11.8975C14.2772 11.8975 13.4063 11.5189 12.862 11.2486C12.8075 11.2486 12.7531 11.1945 12.6987 11.1945C12.5645 11.1978 12.4333 11.235 12.3177 11.3026C12.2017 11.3702 12.2632 11.3567 11.5012 12.222C11.4495 12.3231 11.3434 12.3864 11.2291 12.3842H11.1746C11.0928 12.3706 11.017 12.3329 10.9569 12.2761L10.6847 12.1679C10.1008 11.9223 9.5661 11.5742 9.10624 11.1404C8.99739 11.0322 8.8341 10.9241 8.72523 10.8159C8.32228 10.4324 7.9743 9.99568 7.69106 9.51802L7.63661 9.40987C7.58933 9.34376 7.55261 9.27079 7.52776 9.19355C7.51352 9.09987 7.53278 9.0042 7.58219 8.92317C7.63172 8.84203 7.79991 8.65275 7.9632 8.49052C8.1265 8.32829 8.1265 8.22014 8.23536 8.11197C8.29131 8.03477 8.32997 7.94657 8.34875 7.85328C8.36752 7.76 8.36598 7.66381 8.34421 7.57117C8.09055 6.87142 7.79985 6.18546 7.47333 5.51619C7.38581 5.38095 7.24945 5.28418 7.09232 5.24579H6.49357C6.38472 5.24579 6.27586 5.29986 6.16699 5.29986L6.11256 5.35394C6.0037 5.40801 5.89485 5.51618 5.78597 5.57026C5.67712 5.62434 5.62269 5.78658 5.51383 5.89474C5.13331 6.37248 4.92277 6.96198 4.91509 7.57117C4.92112 7.99969 5.01366 8.42266 5.18723 8.815L5.24167 8.97723C5.73041 10.0154 6.41394 10.9515 7.25562 11.7353L7.47333 11.9516C7.63176 12.082 7.77755 12.2268 7.90877 12.3842C9.03657 13.3592 10.3761 14.0623 11.8223 14.4392C11.9856 14.4933 12.2034 14.4933 12.3666 14.5474H12.911C13.1954 14.5334 13.4737 14.4597 13.7274 14.331C13.8608 14.271 13.9881 14.1986 14.1084 14.1147L14.2173 14.0066C14.3262 13.8984 14.435 13.8443 14.5439 13.7362C14.6503 13.642 14.742 13.5327 14.816 13.4117C14.9205 13.1694 14.994 12.9153 15.0338 12.6546V12.2761C14.9848 12.2324 14.9298 12.196 14.8705 12.1679" fill="white"/>
</g>
<defs>
<clipPath id="clip0_1_363">
<rect width="20" height="20" fill="white"/>
</clipPath>
</defs>
</svg>
